# xmcd
#
# Track frame offsets: 
#        150
#        14276
#        27905
#        41169
#        52799
#        67930
#        83976
#        97775
#        109729
#        124054
#        138232
#        151265
#        164370
#        177975
#        190839
#
# Disc length: 2704 seconds
#
# Revision: 0
# Processed by: cddbd v1.5.2PL0 Copyright (c) Steve Scherf et al.
# Submitted via: ExactAudioCopyFreeDBPlugin 1.0
#
DISCID=b60a8e0f
DTITLE=Easy Listening - Feel The Blues
DYEAR=2011
DGENRE=Blues
TTITLE0=John Lee Hooker - I'm In The Mood
TTITLE1=B.B. King - Three O'Clock Blues
TTITLE2=Muddy Waters - Mannish Boy
TTITLE3=Ray Charles - C. C. Rider
TTITLE4=Mildred Bailey - Georgia On My Mind
TTITLE5=Maxine Sullivan - It Ain't Necessarily So
TTITLE6=Howlin' Wolf - Smokestack Lightning
TTITLE7=Jimmy Reed - Honest I Do
TTITLE8=Lowell Fulson - Reconsider Baby
TTITLE9=Dinah Washington - Mellow Mama Blues
TTITLE10=Billie Holiday - St. Louis Blues
TTITLE11=Ray Charles - Baby, Won't You Please Come Home
TTITLE12=Big Joe Turner - Going To Chicago Blues
TTITLE13=Muddy Waters - I'm Your Hoochie Coochie Man
TTITLE14=Robert Johnson - Crossroad Blues
EXTD=
EXTT0=
EXTT1=
EXTT2=
EXTT3=
EXTT4=
EXTT5=
EXTT6=
EXTT7=
EXTT8=
EXTT9=
EXTT10=
EXTT11=
EXTT12=
EXTT13=
EXTT14=
PLAYORDER=
